<svg width="193" height="60" viewBox="0 0 193 60" fill="none" xmlns="http://www.w3.org/2000/svg">
<mask id="mask0_326_5673" style="mask-type:luminance" maskUnits="userSpaceOnUse" x="0" y="23" width="48" height="38">
<path d="M20.7843 23.1089C20.6009 23.1089 20.4262 23.1089 20.2428 23.1263C16.2604 23.3351 12.8107 25.8061 11.3522 29.5387L5.80648 43.7556L0.0773544 58.4511C-0.123514 58.9732 0.0773544 59.5561 0.557693 59.8432C0.741095 59.9563 0.941964 60.0085 1.14283 60.0085C1.46597 60.0085 1.78911 59.8693 2.01618 59.6083L14.8892 44.5996C16.994 42.1373 20.0682 40.7278 23.317 40.7278H41.7533C44.9322 40.7278 47.5261 38.135 47.5261 34.9766V27.9639C47.5261 25.2841 45.3427 23.1176 42.6615 23.1176H20.7843V23.1089Z" fill="white"/>
</mask>
<g mask="url(#mask0_326_5673)">
<path d="M5.38447 7.91577L-11.9795 55.7295L42.0092 75.1893L59.3732 27.3755L5.38447 7.91577Z" fill="url(#paint0_linear_326_5673)"/>
</g>
<mask id="mask1_326_5673" style="mask-type:luminance" maskUnits="userSpaceOnUse" x="0" y="0" width="48" height="60">
<path d="M16.5831 0C12.7404 0 9.49161 2.74072 8.85407 6.51682L0.0158376 58.6688C-0.0802301 59.243 0.269107 59.7999 0.83678 59.9565C0.941581 59.9826 1.04638 60 1.14245 60C1.60532 60 2.03326 59.7216 2.20793 59.2691L15.7098 24.6578C17.3866 20.377 21.4389 17.6189 26.0502 17.6189H41.7529C44.9319 17.6189 47.5257 15.0261 47.5257 11.8678V4.84629C47.5257 2.16647 45.3423 0 42.6612 0H16.5831Z" fill="white"/>
</mask>
<g mask="url(#mask1_326_5673)">
<path d="M15.7533 -22.3411L-28.459 40.0527L31.6938 82.3582L75.9061 19.9643L15.7533 -22.3411Z" fill="url(#paint1_linear_326_5673)"/>
</g>
<path d="M172.353 45.0868C173.418 45.0868 174.152 45.7916 174.152 46.827C174.152 47.8623 173.418 48.5671 172.344 48.5671H170.885V50.6727H170.353V45.0781H172.344L172.353 45.0868ZM170.894 48.0973H172.23C173.095 48.0973 173.61 47.6187 173.61 46.827C173.61 46.0352 173.095 45.5567 172.23 45.5567H170.894V48.0973Z" fill="black"/>
<path d="M179.898 50.6815H176.51V45.0869H179.898V45.5742H177.043V47.584H179.75V48.0539H177.043V50.2029H179.898V50.6815Z" fill="black"/>
<path d="M182.929 50.6815H182.396V45.0957H184.405C185.506 45.0957 186.204 45.7309 186.204 46.7314C186.204 47.5232 185.75 48.1148 184.999 48.315L186.353 50.6902H185.733L184.44 48.402H182.92V50.6902L182.929 50.6815ZM182.929 47.9234H184.362C185.174 47.9234 185.654 47.4884 185.654 46.7401C185.654 45.9919 185.156 45.5655 184.344 45.5655H182.929V47.9234Z" fill="black"/>
<path d="M189.182 48.6975C189.182 49.6372 189.793 50.281 190.824 50.281C191.855 50.281 192.466 49.6372 192.466 48.6975V45.0867H192.999V48.7236C192.999 49.9243 192.169 50.7683 190.824 50.7683C189.479 50.7683 188.649 49.933 188.649 48.7236V45.0867H189.182V48.6975ZM190.588 44.6691L191.566 43.5293H192.169L191.042 44.6691H190.588Z" fill="black"/>
<path d="M57.5869 40.684V13.3726H76.2502V18.9758H64.5649V25.1794H75.1848V30.5042H64.5649V40.684H57.5869Z" fill="black"/>
<path d="M78.8877 14.5908C78.8877 12.7028 80.451 11.2759 82.3461 11.2759C84.2413 11.2759 85.822 12.6941 85.822 14.5908C85.822 16.4876 84.2675 17.9058 82.3461 17.9058C80.4248 17.9058 78.8877 16.505 78.8877 14.5908ZM78.9838 19.6459H85.7347V40.719H78.9838V19.6459Z" fill="black"/>
<path d="M89.1494 19.6458H95.682V23.6046H95.813C96.9571 20.7856 99.1405 19.2891 102.372 19.2891C107.088 19.2891 109.725 22.2386 109.725 27.2241V40.7189H102.983V28.6597C102.983 26.2148 101.839 24.7618 99.5247 24.7618C97.2104 24.7618 95.8741 26.4497 95.8741 28.8337V40.7189H89.1494V19.6458Z" fill="black"/>
<path d="M115.053 40.684V18.9758H107.455V13.3726H129.629V18.9758H122.031V40.684H115.053Z" fill="black"/>
<path d="M148.336 33.6104C147.689 37.926 143.794 40.6928 138.318 40.6928C131.629 40.6928 127.603 36.5861 127.603 29.8082C127.603 23.0304 131.672 18.7148 138.091 18.7148C144.51 18.7148 148.467 22.839 148.467 29.2601V31.1742H134.161V31.5919C134.161 34.1673 135.891 35.9248 138.415 35.9248C140.275 35.9248 141.742 35.0548 142.257 33.6191H148.336V33.6104ZM134.231 27.3198H142.1C141.969 24.988 140.432 23.4741 138.187 23.4741C135.943 23.4741 134.406 25.0664 134.231 27.3198Z" fill="black"/>
<path d="M164.17 27.4155C163.943 25.2403 162.572 23.8221 160.519 23.8221C158.03 23.8221 156.546 25.9798 156.546 29.6863C156.546 33.3928 158.03 35.5506 160.519 35.5506C162.572 35.5506 163.917 34.2977 164.17 32.1051H170.362C170.152 37.4039 166.353 40.684 160.441 40.684C153.847 40.684 149.742 36.5338 149.742 29.6863C149.742 22.8389 153.847 18.7061 160.406 18.7061C166.318 18.7061 170.152 22.2037 170.344 27.4155H164.17Z" fill="black"/>
<path d="M172.283 12.4331H178.877V23.9963H179.008C180.126 21.1773 182.405 19.6808 185.637 19.6808C190.353 19.6808 192.99 22.6564 192.99 27.6332V40.7278H186.239V29.0775C186.239 26.65 185.043 25.1622 182.728 25.1622C180.414 25.1622 179.008 26.8502 179.008 29.2515V40.7365H172.283V12.4331Z" fill="black"/>
<defs>
<linearGradient id="paint0_linear_326_5673" x1="57.0923" y1="50.44" x2="14.1621" y2="34.8496" gradientUnits="userSpaceOnUse">
<stop stop-color="#E72C48"/>
<stop offset="0.31" stop-color="#E72C48"/>
<stop offset="1" stop-color="#7F171A"/>
</linearGradient>
<linearGradient id="paint1_linear_326_5673" x1="1.60045" y1="56.4696" x2="43.6721" y2="-3.35076" gradientUnits="userSpaceOnUse">
<stop stop-color="#BE181A"/>
<stop offset="1" stop-color="#E62841"/>
</linearGradient>
</defs>
</svg>
