<?xml version="1.0" encoding="UTF-8"?>
<svg version="1.1" xmlns="http://www.w3.org/2000/svg"
  width="500" height="500" viewBox="0 0 657.000000 414.703067"
  preserveAspectRatio="xMidYMid meet">
  <defs>
    <linearGradient id="logoGrad" x1="20%" y1="95%" x2="80%" y2="5%">
      <stop offset="0%" stop-color="#111430"/>
      <stop offset="42%" stop-color="#1e1a55"/>
      <stop offset="100%" stop-color="#7B2AC4"/>
    </linearGradient>
    <linearGradient id="arrowGrad" x1="0%" y1="100%" x2="100%" y2="0%">
      <stop offset="0%" stop-color="#281f70"/>
      <stop offset="100%" stop-color="#9535D8"/>
    </linearGradient>
  </defs>
  <g transform="translate(-54.000000,414.698561) scale(0.100000,-0.100000)"
     stroke="none">
    <path fill="url(#logoGrad)" d="M3620 4144 c-103 -10 -279 -47 -383 -80 -590 -190 -1000 -638 -1128
-1234 -31 -143 -34 -463 -5 -615 81 -435 339 -822 706 -1059 76 -49 262 -146
281 -146 19 0 154 99 208 153 116 115 195 274 226 454 17 96 21 453 6 453 -5
0 -69 -21 -143 -46 -73 -25 -140 -48 -149 -51 -15 -4 -18 -27 -21 -166 -4
-136 -8 -171 -26 -218 -30 -75 -81 -132 -148 -165 -46 -22 -63 -26 -106 -21
-66 8 -120 44 -155 104 -40 68 -39 164 2 243 103 202 320 361 645 474 55 20
189 61 298 91 108 31 256 75 327 97 447 140 789 331 1088 607 68 63 202 221
254 299 l35 54 30 -29 c17 -15 57 -60 88 -100 l58 -72 11 62 c30 179 116 826
110 831 -2 2 -123 -41 -269 -95 -146 -54 -320 -117 -387 -140 -68 -22 -123
-42 -123 -44 0 -1 32 -22 72 -46 40 -24 85 -54 100 -67 l27 -23 -41 -67 c-135
-221 -346 -436 -581 -594 -230 -153 -513 -273 -982 -417 -522 -159 -859 -347
-1026 -571 -28 -38 -56 -70 -60 -70 -25 0 -90 165 -120 305 -29 135 -36 353
-15 494 90 608 590 1102 1251 1236 232 47 396 51 895 19 l85 -5 -70 31 c-97
44 -249 87 -385 111 -112 20 -378 32 -480 23z"/>
    <path fill="url(#logoGrad)" d="M3890 3798 c-148 -21 -315 -94 -421 -185 -144 -122 -218 -259 -254
-467 -20 -115 -22 -511 -2 -503 6 2 78 26 160 53 l147 48 0 151 c0 82 5 179
11 215 29 185 154 315 351 364 55 14 109 16 295 14 l228 -3 56 26 c101 48 166
120 207 230 l21 56 -142 6 c-197 9 -579 6 -657 -5z"/>
    <path fill="url(#arrowGrad)" d="M5317 2909 l-98 -110 12 -113 c25 -238 -35 -564 -143 -781 -109 -216
-295 -425 -498 -561 -290 -193 -684 -279 -1014 -223 l-58 10 -72 -68 c-39 -38
-89 -83 -110 -100 -44 -36 -45 -34 49 -57 230 -56 522 -67 740 -27 578 106
1031 469 1236 991 52 132 93 294 109 431 19 161 9 465 -20 599 -13 58 -26 108
-29 112 -3 3 -50 -43 -104 -103z"/>
  </g>
</svg>
